<svg id="Capa_1" enable-background="new 0 0 512 512" height="512" viewBox="0 0 512 512" width="512" xmlns="http://www.w3.org/2000/svg"><g><g><g><g><g><g><g><path d="m294.661 394.535c0-18.519-8.566-35.997-23.203-47.342-14.637-11.345-23.203-28.823-23.203-47.342v-6.613h-45.552v6.613c0 18.519-8.566 35.997-23.203 47.342-12.578 9.749-20.655 24.032-22.684 39.608l27.671 16.584h110.173v-8.85z" fill="#f2f9ff"/><path d="m265.242 347.193c14.637 11.345 23.203 28.823 23.203 47.342v8.85h39.182l27.659-16.574c-2.026-15.579-10.085-29.867-22.665-39.619-14.637-11.345-23.203-28.823-23.203-47.342v-6.613h-67.379v6.613c0 18.52 8.566 35.998 23.203 47.343z" fill="#e2f4ff"/></g></g></g><g><g><g><path d="m262.641 7.667h-12.875l-1.298.775c-19.819 32.607-66.818 126.901 7.604 189.647h.262c74.514-62.824 27.379-157.155 7.603-189.649z" fill="#c6e873"/><g><path d="m263.936 284.941v-276.501c-1.519-2.508-2.892-4.682-4.036-6.437-1.74-2.671-5.657-2.671-7.397 0-1.144 1.755-2.517 3.929-4.036 6.438v276.5z" fill="#a8d340"/><path d="m248.467 296.629v103.742c0 4.272 3.463 7.735 7.735 7.735s7.734-3.463 7.734-7.735v-103.742z" fill="#e0f2b2"/></g></g></g><g><path d="m448.625 143.125-3.067-1.658c-19.53-4.336-55.407-8.327-89.722 9.198-56.868 29.042-69.803 79.11-69.803 79.11 80.573 22.558 146.223-41.74 168.705-74.783l-.071-1.593z" fill="#b5e245"/><g><g><g><g><path d="m156.285 150.665c-34.29-17.511-70.227-13.517-89.768-9.185l-3.433 1.687-5.086 9.457-.603 2.372c22.701 33.144 88.397 97.26 168.694 74.78-.001-.001-12.936-50.07-69.804-79.111z" fill="#b5e245"/><path d="m230.463 223.394c-73.11-52.148-137.854-74.401-163.946-81.915-3.264.715-6.089 1.441-8.355 2.081-3.446.975-4.958 4.982-3.039 8.006.694 1.094 1.466 2.249 2.272 3.428 20.789 5.559 87.556 26.379 164.2 81.075.095.067.191.133.289.196.265.171 26.513 17.529 26.513 48.261 0 4.272 3.463 7.735 7.735 7.735s7.735-3.463 7.735-7.735c-.001-38.026-30.539-59.227-33.404-61.132z" fill="#a8d340"/></g></g></g></g></g></g></g></g></g><path d="m456.839 151.817c2.007-3.145.424-7.33-3.168-8.337-2.227-.624-4.963-1.324-8.113-2.013-27.715 7.892-91.031 29.95-163.901 81.928-2.871 1.909-33.402 23.11-33.402 61.132 0 4.272 3.463 7.735 7.735 7.735s7.735-3.463 7.735-7.735c0-30.491 26.268-48.1 26.513-48.261.098-.063.193-.129.288-.196 76.772-54.787 143.918-75.642 164.212-81.078.747-1.093 1.45-2.154 2.101-3.175z" fill="#a8d340"/><path d="m314.719 307.893h-117.318c-5.53 0-10.014-4.483-10.014-10.014v-13.369c0-5.53 4.483-10.013 10.014-10.013h117.318c5.53 0 10.013 4.483 10.013 10.013v13.369c.001 5.531-4.482 10.014-10.013 10.014z" fill="#e2f4ff"/><path d="m294.661 481.614v-87.08c0-2.822-.222-5.614-.611-8.369-.709-.029-1.438-.048-2.211-.048-17.892 0-17.892 7.986-35.783 7.986-17.892 0-17.892-7.986-35.785-7.986-17.892 0-17.892 7.986-35.783 7.986-14.677 0-17.32-5.372-27.671-7.303-.332 2.549-.519 5.129-.519 7.734v87.08c0 16.781 13.604 30.386 30.386 30.386h77.592c16.78 0 30.385-13.604 30.385-30.386z" fill="#d1ecf9"/><path d="m355.824 481.614v-87.08c0-2.605-.187-5.185-.519-7.734-10.354 1.931-12.997 7.303-27.678 7.303-17.894 0-17.894-7.986-35.788-7.986-1.444 0-2.76.057-3.99.152.379 2.722.596 5.479.596 8.265v87.08c0 16.782-13.604 30.386-30.386 30.386h67.379c16.781 0 30.386-13.604 30.386-30.386z" fill="#afe2f7"/></g></svg>